<mxfile host="Electron" agent="Mozilla/5.0 (Macintosh; Intel Mac OS X 10_15_7) AppleWebKit/537.36 (KHTML, like Gecko) draw.io/24.7.5 Chrome/126.0.6478.183 Electron/31.3.0 Safari/537.36" version="24.7.5">
  <diagram name="Page-1" id="RPrTUROr23FWm5W8odVS">
    <mxGraphModel dx="2092" dy="806" grid="0" gridSize="10" guides="1" tooltips="1" connect="1" arrows="1" fold="1" page="1" pageScale="1" pageWidth="850" pageHeight="1100" math="0" shadow="0">
      <root>
        <mxCell id="0" />
        <mxCell id="1" parent="0" />
        <mxCell id="DsPnYyxVr21O-6UvBjk6-1" value="&lt;b&gt;&lt;u&gt;UPI System&lt;/u&gt;&lt;/b&gt;&lt;div&gt;&lt;br&gt;&lt;/div&gt;&lt;div&gt;What is UPI system? Unified Payment Interface&lt;/div&gt;&lt;div&gt;Objective is to take different payment interfaces exposed by banks (payment wallets)&lt;/div&gt;&lt;div&gt;and any transaction capable system and unify them.&lt;/div&gt;" style="text;html=1;align=center;verticalAlign=middle;resizable=0;points=[];autosize=1;strokeColor=none;fillColor=none;" vertex="1" parent="1">
          <mxGeometry width="468" height="84" as="geometry" />
        </mxCell>
        <mxCell id="DsPnYyxVr21O-6UvBjk6-2" value="Example" style="text;html=1;align=center;verticalAlign=middle;resizable=0;points=[];autosize=1;strokeColor=none;fillColor=none;" vertex="1" parent="1">
          <mxGeometry x="-7" y="108" width="65" height="26" as="geometry" />
        </mxCell>
        <mxCell id="DsPnYyxVr21O-6UvBjk6-3" value="HDFC Bank" style="whiteSpace=wrap;html=1;" vertex="1" parent="1">
          <mxGeometry x="102" y="142" width="120" height="60" as="geometry" />
        </mxCell>
        <mxCell id="DsPnYyxVr21O-6UvBjk6-4" value="CHASE BANK" style="whiteSpace=wrap;html=1;" vertex="1" parent="1">
          <mxGeometry x="430" y="142" width="120" height="60" as="geometry" />
        </mxCell>
        <mxCell id="DsPnYyxVr21O-6UvBjk6-5" value="APP" style="ellipse;whiteSpace=wrap;html=1;" vertex="1" parent="1">
          <mxGeometry x="263" y="256" width="80" height="80" as="geometry" />
        </mxCell>
        <mxCell id="DsPnYyxVr21O-6UvBjk6-6" value="" style="edgeStyle=none;orthogonalLoop=1;jettySize=auto;html=1;rounded=0;exitX=1;exitY=0.5;exitDx=0;exitDy=0;" edge="1" parent="1" source="DsPnYyxVr21O-6UvBjk6-5" target="DsPnYyxVr21O-6UvBjk6-4">
          <mxGeometry width="100" relative="1" as="geometry">
            <mxPoint x="359" y="297" as="sourcePoint" />
            <mxPoint x="459" y="297" as="targetPoint" />
            <Array as="points">
              <mxPoint x="467" y="276" />
            </Array>
          </mxGeometry>
        </mxCell>
        <mxCell id="DsPnYyxVr21O-6UvBjk6-7" value="API" style="edgeLabel;html=1;align=center;verticalAlign=middle;resizable=0;points=[];" vertex="1" connectable="0" parent="DsPnYyxVr21O-6UvBjk6-6">
          <mxGeometry x="0.0657" y="4" relative="1" as="geometry">
            <mxPoint as="offset" />
          </mxGeometry>
        </mxCell>
        <mxCell id="DsPnYyxVr21O-6UvBjk6-8" value="APP" style="ellipse;whiteSpace=wrap;html=1;" vertex="1" parent="1">
          <mxGeometry x="-60" y="260" width="80" height="80" as="geometry" />
        </mxCell>
        <mxCell id="DsPnYyxVr21O-6UvBjk6-10" value="" style="edgeStyle=none;orthogonalLoop=1;jettySize=auto;html=1;endArrow=classic;startArrow=classic;endSize=8;startSize=8;rounded=0;entryX=0;entryY=0.5;entryDx=0;entryDy=0;" edge="1" parent="1" source="DsPnYyxVr21O-6UvBjk6-8" target="DsPnYyxVr21O-6UvBjk6-5">
          <mxGeometry width="100" relative="1" as="geometry">
            <mxPoint x="75" y="394" as="sourcePoint" />
            <mxPoint x="175" y="394" as="targetPoint" />
            <Array as="points" />
          </mxGeometry>
        </mxCell>
        <mxCell id="DsPnYyxVr21O-6UvBjk6-11" value="CAN MAKE TRANSFERS&amp;nbsp;&lt;div&gt;BETWEEN EACH OTHER&lt;div&gt;WITHOUT KNOWING&amp;nbsp;&lt;/div&gt;&lt;div&gt;THEIR BANK&lt;/div&gt;&lt;/div&gt;" style="edgeLabel;html=1;align=center;verticalAlign=middle;resizable=0;points=[];" vertex="1" connectable="0" parent="DsPnYyxVr21O-6UvBjk6-10">
          <mxGeometry x="-0.558" y="-3" relative="1" as="geometry">
            <mxPoint x="59" y="5" as="offset" />
          </mxGeometry>
        </mxCell>
        <mxCell id="DsPnYyxVr21O-6UvBjk6-12" value="Text" style="text;html=1;align=center;verticalAlign=middle;resizable=0;points=[];autosize=1;strokeColor=none;fillColor=none;" vertex="1" parent="1">
          <mxGeometry x="13" y="372" width="40" height="26" as="geometry" />
        </mxCell>
      </root>
    </mxGraphModel>
  </diagram>
</mxfile>
